# xmcd
#
# Track frame offsets: 
#        150
#        23154
#        43890
#        58154
#        76394
#        91622
#        109099
#        121702
#        138298
#        154535
#        176826
#        195804
#        216007
#
# Disc length: 3147 seconds
#
# Revision: 0
# Processed by: cddbd v1.5.2PL0 Copyright (c) Steve Scherf et al.
# Submitted via: ExactAudioCopy v1.3
#
DISCID=9f0c490d
DTITLE=Dana Gillespie - Her Hits And Most Important Songs [disk 2]
DYEAR=1998
DGENRE=Blues, Pop
TTITLE0=Move Your Body Close To Me
TTITLE1=Your Love Is In Me
TTITLE2=Good And Direct
TTITLE3=Sun Arise
TTITLE4=Haunted By You
TTITLE5=Jet Lag From Paradise
TTITLE6=Living In Reverse
TTITLE7=Let's Get Wet
TTITLE8=Divine Romance
TTITLE9=The Circle Is Complete
TTITLE10=It Belongs To Me
TTITLE11=Have A Drink
TTITLE12=The Politics Of Ecstasy
EXTD=
EXTT0=
EXTT1=
EXTT2=
EXTT3=
EXTT4=
EXTT5=
EXTT6=
EXTT7=
EXTT8=
EXTT9=
EXTT10=
EXTT11=
EXTT12=
PLAYORDER=
